# xmcd
#
# Track frame offsets:
#	150
#	17100
#	35767
#	51445
#	68997
#	87232
#	99190
#	111670
#	129882
#	142725
#	158467
#	171705
#	186517
#	204682
#	220752
#	233785
#	249367
#	261980
#	276080
#	286495
#	304620
#
# Disc length: 4269
#
# Revision: 1
# Processed by: cddbd v1.5.1PL0 Copyright (c) Steve Scherf et al.
# Submitted via: audiograbber 1.82.02
# Normalized: r0:DSETVAR2
#
DISCID=3910ab15
DTITLE=Various Artist - GoldDisc 2027
DYEAR=1990
DGENRE=Country
TTITLE0=Travis Tritt - Drift Off To Dream
TTITLE1=Vince Gill - Pocket Full Of Gold
TTITLE2=Dolly Parton with Ricky Van Shelton - Rockin' Years
TTITLE3=Reba McEntire - Fancy
TTITLE4=Ronnie Milsap - Are You Lovin' Me Like I'm Lovin' You
TTITLE5=Mary-Chapin Carpenter - Right Now
TTITLE6=George Strait - If I Know Me
TTITLE7=Paul Overstreet - Heroes
TTITLE8=Kathy Mattea - Time Passes By
TTITLE9=Doug Stone - In A Different Light
TTITLE10=Mark Collie - Let Her Go
TTITLE11=Diamond Rio - Meet In The Middle
TTITLE12=Dwight Yoakam - You're The One
TTITLE13=Tanya Tucker - Oh What It Did To Me
TTITLE14=Mark Chestnutt - Blame It On Texas
TTITLE15=Oak Ridge Boys - Lucky Moon
TTITLE16=Joe Diffie - If The Devil Danced (In Empty Pockets)
TTITLE17=Lorrie Morgan - We Both Walk
TTITLE18=Clint Black - One More Payment
TTITLE19=Pirates Of The Mississippi - Feed Jake
TTITLE20=Desert Rose Band - Will This Be The Day
EXTD=
EXTT0=
EXTT1=
EXTT2=
EXTT3=
EXTT4=
EXTT5=
EXTT6=
EXTT7=
EXTT8=
EXTT9=
EXTT10=
EXTT11=
EXTT12=
EXTT13=
EXTT14=
EXTT15=
EXTT16=
EXTT17=
EXTT18=
EXTT19=
EXTT20=
PLAYORDER=
